<svg aria-hidden="true" style="position: absolute; width: 0; height: 0; overflow: hidden;" version="1.1" xmlns="http://www.w3.org/2000/svg" xmlns:xlink="http://www.w3.org/1999/xlink">
<defs>
<symbol id="icon-close" viewBox="0 0 32 32">
<path d="M8.533 8.533l14.933 14.933"></path>
<path d="M8.533 23.467l14.933-14.933"></path>
</symbol>
<symbol id="icon-arrow" viewBox="0 0 32 32">
<path d="M6.667 16h18.667"></path>
<path d="M16 25.334l9.333-9.333-9.333-9.333"></path>
</symbol>
<symbol id="icon-logo" viewBox="0 0 32 32">
<path d="M26.427 2.667h-20.853c-1.605 0-2.907 1.301-2.907 2.907v20.853c0 1.605 1.301 2.907 2.907 2.907h20.853c1.605 0 2.907-1.301 2.907-2.907v-20.853c0-1.605-1.301-2.907-2.907-2.907z"></path>
<path d="M9.333 2.667v26.667"></path>
<path d="M22.667 2.667v26.667"></path>
<path d="M2.667 16h26.667"></path>
<path d="M2.667 9.333h6.667"></path>
<path d="M2.667 22.667h6.667"></path>
<path d="M22.667 22.667h6.667"></path>
<path d="M22.667 9.333h6.667"></path>
</symbol>
<symbol id="icon-heart" viewBox="0 0 34 32">
<path d="M17.231 31.705l-2.412-2.412c-8.96-7.926-14.818-13.268-14.818-19.815 0-5.342 4.135-9.477 9.477-9.477 2.929 0 5.858 1.378 7.754 3.618 1.895-2.24 4.825-3.618 7.754-3.618 5.342 0 9.477 4.135 9.477 9.477 0 6.548-5.858 11.889-14.818 19.815l-2.412 2.412z"></path>
</symbol>
<symbol id="icon-search" viewBox="0 0 32 32">
<path d="M14.667 25.333c5.891 0 10.667-4.776 10.667-10.667s-4.776-10.667-10.667-10.667c-5.891 0-10.667 4.776-10.667 10.667s4.776 10.667 10.667 10.667z"></path>
<path d="M28 28.001l-5.8-5.8"></path>
</symbol>

<symbol id="no-image" viewBox="0 0 32 32">
<path fill="#b5b5b5" id="picture" d="M27.5,5H4.5A1.50008,1.50008,0,0,0,3,6.5v19A1.50008,1.50008,0,0,0,4.5,27h23A1.50008,1.50008,0,0,0,29,25.5V6.5A1.50008,1.50008,0,0,0,27.5,5ZM26,18.5l-4.79425-5.2301a.99383.99383,0,0,0-1.44428-.03137l-5.34741,5.34741L19.82812,24H17l-4.79291-4.793a1.00022,1.00022,0,0,0-1.41418,0L6,24V8H26Zm-17.9-6a2.4,2.4,0,1,1,2.4,2.4A2.40005,2.40005,0,0,1,8.1,12.5Z"/>
</symbol>

</defs>
</svg>
